<svg width="70" height="70" viewBox="0 0 70 70" fill="none" xmlns="http://www.w3.org/2000/svg">
<path d="M64.1663 18.2291V33.104C64.1663 36.8082 62.9413 39.9291 60.7538 42.0874C58.5955 44.2749 55.4747 45.4998 51.7705 45.4998V50.779C51.7705 52.7623 49.5538 53.9582 47.9205 52.8499L45.0914 50.9832C45.3539 50.079 45.4705 49.0873 45.4705 48.0373V36.1667C45.4705 30.2167 41.5038 26.2499 35.5538 26.2499H15.7497C15.3413 26.2499 14.9622 26.2791 14.583 26.3083V18.2291C14.583 10.7916 19.5413 5.83325 26.9788 5.83325H51.7705C59.208 5.83325 64.1663 10.7916 64.1663 18.2291Z" stroke="#596780" stroke-width="3" stroke-miterlimit="10" stroke-linecap="round" stroke-linejoin="round"/>
<path d="M45.4705 36.1667V48.0374C45.4705 49.0874 45.3539 50.0791 45.0914 50.9833C44.0122 55.2708 40.4538 57.9542 35.5538 57.9542H27.6205L18.8122 63.8167C17.4997 64.7208 15.7497 63.7584 15.7497 62.1834V57.9542C12.7747 57.9542 10.2955 56.9625 8.57468 55.2417C6.82468 53.4917 5.83301 51.0124 5.83301 48.0374V36.1667C5.83301 30.6251 9.27467 26.8042 14.583 26.3084C14.9622 26.2792 15.3413 26.25 15.7497 26.25H35.5538C41.5038 26.25 45.4705 30.2167 45.4705 36.1667Z" stroke="#596780" stroke-width="3" stroke-miterlimit="10" stroke-linecap="round" stroke-linejoin="round"/>
</svg>
