<svg width="23" height="30" viewBox="0 0 23 30" fill="none" xmlns="http://www.w3.org/2000/svg">
<path fill-rule="evenodd" clip-rule="evenodd" d="M14.7914 0H3C1.34315 0 0 1.34315 0 3V27C0 28.6569 1.34314 30 3 30H19.3009C20.9577 30 22.3009 28.6569 22.3009 27V7.50951L14.7914 0Z" fill="#DE8807"/>
<path d="M14.7354 0L18.5185 3.71681L22.3017 7.56637H17.7353C16.0785 7.56637 14.7354 6.22322 14.7354 4.56637V0Z" fill="white" fill-opacity="0.4"/>
<path d="M5.33437 19V18.23H5.63537C5.8687 18.23 6.05537 18.1623 6.19537 18.027C6.33537 17.887 6.40537 17.7003 6.40537 17.467V13.785H7.22437V17.439C7.22437 17.7563 7.15903 18.0317 7.02837 18.265C6.90237 18.4983 6.71803 18.6803 6.47537 18.811C6.23737 18.937 5.95737 19 5.63537 19H5.33437ZM8.29291 19V13.785H10.1899C10.5399 13.785 10.8479 13.8503 11.1139 13.981C11.3846 14.107 11.5946 14.2937 11.7439 14.541C11.8932 14.7837 11.9679 15.0753 11.9679 15.416C11.9679 15.752 11.8909 16.0413 11.7369 16.284C11.5876 16.5267 11.3799 16.7133 11.1139 16.844C10.8479 16.9747 10.5399 17.04 10.1899 17.04H9.11891V19H8.29291ZM9.11891 16.305H10.2109C10.3976 16.305 10.5609 16.2677 10.7009 16.193C10.8409 16.1183 10.9506 16.0157 11.0299 15.885C11.1092 15.7497 11.1489 15.591 11.1489 15.409C11.1489 15.227 11.1092 15.0707 11.0299 14.94C10.9506 14.8047 10.8409 14.702 10.7009 14.632C10.5609 14.5573 10.3976 14.52 10.2109 14.52H9.11891V16.305ZM15.2613 19.084C14.8926 19.084 14.5496 19.0163 14.2323 18.881C13.9196 18.7457 13.6443 18.559 13.4063 18.321C13.173 18.0783 12.991 17.7937 12.8603 17.467C12.7296 17.1403 12.6643 16.781 12.6643 16.389C12.6643 16.0017 12.7273 15.6447 12.8533 15.318C12.984 14.9867 13.166 14.702 13.3993 14.464C13.6326 14.2213 13.9056 14.0347 14.2183 13.904C14.531 13.7687 14.874 13.701 15.2473 13.701C15.616 13.701 15.945 13.764 16.2343 13.89C16.5283 14.016 16.7756 14.1817 16.9763 14.387C17.177 14.5877 17.3216 14.807 17.4103 15.045L16.6753 15.402C16.568 15.1173 16.3906 14.8887 16.1433 14.716C15.896 14.5387 15.5973 14.45 15.2473 14.45C14.902 14.45 14.5963 14.5317 14.3303 14.695C14.0643 14.8583 13.8566 15.0847 13.7073 15.374C13.5626 15.6633 13.4903 16.0017 13.4903 16.389C13.4903 16.7763 13.565 17.117 13.7143 17.411C13.8683 17.7003 14.0783 17.9267 14.3443 18.09C14.6103 18.2487 14.916 18.328 15.2613 18.328C15.5506 18.328 15.8143 18.2697 16.0523 18.153C16.295 18.0317 16.4886 17.8637 16.6333 17.649C16.778 17.4297 16.8503 17.1753 16.8503 16.886V16.529L17.2213 16.865H15.2473V16.165H17.6693V16.655C17.6693 17.0377 17.604 17.3807 17.4733 17.684C17.3426 17.9827 17.1653 18.237 16.9413 18.447C16.7173 18.657 16.4606 18.8157 16.1713 18.923C15.882 19.0303 15.5786 19.084 15.2613 19.084Z" fill="white"/>
</svg>
