<svg width="99" height="60" viewBox="0 0 99 60" fill="none" xmlns="http://www.w3.org/2000/svg">
<path d="M55.8103 13.9914C57.8276 13.9914 59.3534 14.7931 60.3879 16.3966C61.4224 18 61.9396 20.0173 61.9396 22.4483C61.9396 24.8793 61.336 27.0948 60.1293 29.0948C58.9396 31.0776 57.5602 32.069 55.9914 32.069C54.8881 32.069 54.0776 31.4483 53.5603 30.2069C53.0431 28.9655 52.7069 27.1983 52.5517 24.9052C51.8276 25.9224 51 27.0776 50.069 28.3707C48.2758 30.8535 47.0172 32.0948 46.2931 32.0948C46.0172 32.0948 45.6983 31.8707 45.3362 31.4224C44.9741 30.9741 44.7931 30.4138 44.7931 29.7414C44.7931 29.0518 45.0258 26.9224 45.4914 23.3535C45.9569 19.7673 46.1896 16.9742 46.1896 14.9742C46.1896 14.3362 46.3793 14.0173 46.7586 14.0173C47.1379 14.0173 47.5776 14.2414 48.0776 14.6897C48.5948 15.138 48.8534 15.5518 48.8534 15.931C48.8534 16.2931 48.5603 18.1121 47.9741 21.3879C47.4052 24.6638 47.0517 27.2328 46.9138 29.0948C47.9655 27.319 49.1466 25.6811 50.4569 24.1811C51.7846 22.6638 52.7327 21.9052 53.3017 21.9052C53.8877 21.9052 54.2933 23.1983 54.5172 25.7845C54.6036 26.75 54.7671 27.6379 55.0086 28.4483C55.2672 29.2587 55.6122 29.6638 56.0431 29.6638C57.0088 29.6638 57.8446 28.8879 58.5517 27.3362C59.2758 25.7673 59.6379 24.0345 59.6379 22.1379C59.6379 20.0345 59.1724 18.4138 58.2414 17.2759C57.7588 16.6724 57.224 16.3707 56.6379 16.3707C56.069 16.3707 55.5776 16.1724 55.1638 15.7759C54.7671 15.3793 54.569 15.0345 54.569 14.7414C54.569 14.2414 54.9827 13.9914 55.8103 13.9914ZM74.2815 23.6638C74.2815 24.5776 73.7819 25.3276 72.7815 25.9138C71.7988 26.4828 70.6784 26.7673 69.4195 26.7673C68.1781 26.7673 67.049 26.6293 66.0315 26.3535C65.7905 27.1121 65.6695 27.7931 65.6695 28.3966C65.6695 28.9828 65.8505 29.4397 66.2126 29.7673C66.5922 30.0948 67.2041 30.2586 68.0488 30.2586C68.911 30.2586 69.7903 30.1121 70.6867 29.819C71.6007 29.5086 72.1009 29.3535 72.1867 29.3535C72.6352 29.3535 72.8591 29.5259 72.8591 29.8707C72.8591 30.3362 72.3336 30.8448 71.2815 31.3966C70.23 31.931 69.2043 32.1983 68.2039 32.1983C66.8591 32.1983 65.7646 31.8017 64.9195 31.0086C64.0748 30.1983 63.6522 29.1811 63.6522 27.9569C63.6522 26.7328 63.9802 25.4569 64.635 24.1293C65.2903 22.7845 66.135 21.6552 67.1695 20.7414C68.2039 19.8276 69.2302 19.3707 70.2471 19.3707C71.2645 19.3707 72.1867 19.8534 73.0143 20.819C73.8595 21.7845 74.2815 22.7328 74.2815 23.6638ZM70.3764 21.4138C69.7386 21.4138 69.075 21.75 68.385 22.4224C67.6955 23.0776 67.1095 23.8966 66.6264 24.8793C67.3164 25.0345 68.1005 25.1121 68.9798 25.1121C69.8591 25.1121 70.6267 24.9741 71.2815 24.6983C71.9369 24.4052 72.2643 24.0259 72.2643 23.5604C72.2643 23.0948 72.0491 22.6207 71.6177 22.1379C71.204 21.6552 70.7902 21.4138 70.3764 21.4138Z" fill="white"/>
<path d="M55.0345 47.7414C55.0345 49.1552 54.3967 50.3448 53.1207 51.3103C51.8447 52.2584 50.3793 52.7328 48.7242 52.7328C47.0862 52.7328 45.7328 52.3102 44.6638 51.4655C43.5948 50.6034 43.0604 49.7931 43.0604 49.0345C43.0604 48.5172 43.2155 48.2586 43.5259 48.2586C43.8017 48.2586 44.3448 48.6724 45.1552 49.5C45.4655 49.7931 45.8793 50.069 46.3966 50.3276C46.931 50.5862 47.4914 50.7155 48.0776 50.7155C49.2845 50.7155 50.3535 50.4052 51.2845 49.7845C52.2326 49.1638 52.7069 48.4914 52.7069 47.7672C52.7069 47.3017 52.3966 46.7069 51.7759 45.9828C51.1552 45.2586 50.4656 44.5776 49.7069 43.9396C48.9656 43.2845 48.2845 42.5862 47.6638 41.8448C47.0431 41.1035 46.7328 40.5172 46.7328 40.0862C46.7328 39.6552 46.819 39.1983 46.9914 38.7155C47.1638 38.2328 47.3535 37.8793 47.5604 37.6552C48.2328 36.9138 49.2759 36.2328 50.6897 35.6121C52.1209 34.9914 53.3188 34.681 54.2845 34.681C54.7847 34.681 55.2067 34.8448 55.5517 35.1724C55.8967 35.5 56.069 35.8448 56.069 36.2069C56.069 36.3793 55.8879 36.5172 55.5259 36.6207C55.1638 36.7241 54.6119 36.8621 53.8707 37.0345C53.1466 37.1896 52.5 37.3793 51.9311 37.6034C49.9483 38.3621 48.9569 39.0948 48.9569 39.8017C48.9569 40.181 49.9655 41.2414 51.9828 42.9828C52.7586 43.6552 53.4569 44.4397 54.0776 45.3362C54.7154 46.2155 55.0345 47.0172 55.0345 47.7414ZM67.8688 42.8017L67.6878 47.6638C67.6878 49.0086 67.7478 49.9827 67.8688 50.5862C68.61 49.8103 69.2478 48.9052 69.7826 47.8707C70.334 46.819 70.7395 45.8448 70.9981 44.9483C71.2738 44.0517 71.5066 43.2155 71.6964 42.4397C71.9033 41.6466 72.0926 41.0172 72.2654 40.5517C72.4376 40.0862 72.6357 39.8534 72.8602 39.8534C73.1876 39.8534 73.4809 39.9914 73.7395 40.2672C73.9981 40.5259 74.1274 40.8276 74.1274 41.1724C74.1274 42.0517 73.7307 43.5 72.9378 45.5172C72.2654 47.3793 71.3861 49.0862 70.2998 50.6379C69.2136 52.1726 68.3685 52.9396 67.7654 52.9396C67.1617 52.9396 66.705 52.6034 66.3947 51.931C66.1014 51.2586 65.9374 49.9741 65.9033 48.0776C65.8686 46.1638 65.8945 44.5086 65.9809 43.1121C64.7912 46.3535 63.7392 48.8017 62.8257 50.4569C61.9117 52.1121 61.1876 52.9396 60.6533 52.9396C60.4117 52.9396 60.1531 52.8274 59.8774 52.6034C59.6188 52.3795 59.4119 52.0862 59.2567 51.7241C58.8771 50.8103 58.5497 49.069 58.274 46.5C58.0154 43.9138 57.8861 42.0689 57.8861 40.9655C57.8861 40.2586 58.1012 39.9052 58.5326 39.9052C58.9117 39.9052 59.2567 40.1207 59.5671 40.5517C59.8945 40.9827 60.0843 41.4138 60.1361 41.8448C60.1878 42.2586 60.2307 43.431 60.2654 45.3621C60.3171 47.2759 60.4805 48.9828 60.7567 50.4828C61.4633 49.2586 62.1704 47.7241 62.8774 45.8793C63.6016 44.0345 64.1876 42.5862 64.6361 41.5345C65.1016 40.4828 65.5236 39.9569 65.9033 39.9569C66.4723 39.9569 66.9378 40.2242 67.2999 40.7586C67.679 41.2759 67.8688 41.9569 67.8688 42.8017ZM82.6836 44.4569C82.6836 43.8707 82.589 43.319 82.3992 42.8017C82.2093 42.2673 81.9336 41.8793 81.5716 41.6379C80.3819 41.9655 79.3562 42.8879 78.494 44.4052C77.6493 45.9052 77.2267 47.3189 77.2267 48.6465C77.2267 49.9742 77.5542 50.8017 78.2095 51.1293C79.4509 50.8879 80.5024 50.0431 81.3647 48.5948C82.244 47.1293 82.6836 45.75 82.6836 44.4569ZM75.8819 44.6897C76.4855 43.3448 77.2697 42.2414 78.2354 41.3793C79.2181 40.5 80.2179 40.0603 81.2354 40.0603C82.2698 40.0603 83.1321 40.5 83.8216 41.3793C84.5111 42.2414 84.8561 43.3017 84.8561 44.5603C84.8561 45.8017 84.5545 47.0776 83.9509 48.3879C83.3473 49.681 82.5114 50.7586 81.4423 51.6207C80.3907 52.4653 79.2699 52.8879 78.0802 52.8879C77.2009 52.8879 76.468 52.4829 75.8819 51.6724C75.2959 50.862 75.0026 49.8362 75.0026 48.5948C75.0026 47.3362 75.2959 46.0345 75.8819 44.6897ZM95.0488 39.9828C95.7905 39.9828 96.4283 40.4569 96.9626 41.4052C97.5145 42.3534 97.7902 43.3362 97.7902 44.3534C97.7902 45.3534 97.4974 46.362 96.9109 47.3793C96.3248 48.3793 95.6007 49.2759 94.7385 50.069C93.8767 50.862 92.9198 51.5259 91.8678 52.0603C90.8333 52.5776 89.8764 52.8362 88.9971 52.8362C88.6526 52.8362 88.3247 52.7933 88.0143 52.7069C87.9455 53.0002 87.825 53.5257 87.6523 54.2845C87.48 55.0433 87.3336 55.6722 87.2126 56.1724C87.0921 56.6726 86.954 57.2069 86.7988 57.7759C86.4885 58.9484 86.2128 59.5345 85.9712 59.5345C85.7302 59.5345 85.4799 59.3447 85.2212 58.9655C84.9455 58.6034 84.8074 58.276 84.8074 57.9828C84.8074 57.6895 85.0836 56.431 85.635 54.2069C87.2902 47.5 88.1178 42.9828 88.1178 40.6552C88.1178 40.1379 88.3076 39.8793 88.6867 39.8793C88.9971 39.8793 89.368 40.1121 89.7988 40.5776C90.2473 41.0259 90.4712 41.5258 90.4712 42.0776C90.4712 42.3534 90.4371 42.6552 90.3678 42.9828C91.9024 40.9827 93.463 39.9828 95.0488 39.9828ZM88.7385 50.819C89.6524 50.819 90.6352 50.5086 91.6867 49.8879C92.7559 49.2672 93.6611 48.4483 94.4023 47.431C95.1611 46.3965 95.5402 45.3707 95.5402 44.3534C95.5402 42.9224 95.204 42.2069 94.5316 42.2069C93.8592 42.2069 92.9457 42.7845 91.7902 43.9396C90.6523 45.0948 89.7471 46.5948 89.0747 48.4397L88.4799 50.819H88.7385Z" fill="white"/>
<path d="M26.58 31.5962C26.4648 29.8505 25.8471 28.4243 22.5353 27.5168C22.0463 27.3828 21.0918 28.3332 21.4504 28.6917L25.0862 32.3276C25.4121 32.6534 26.6103 32.0561 26.58 31.5962Z" fill="url(#paint0_linear_380_3936)"/>
<path d="M45.9661 0H12.6408C11.2125 0 10.0546 1.15789 10.0546 2.58621V24.3103C10.0546 25.7387 11.2125 26.8966 12.6408 26.8966H17.5546C18.9829 26.8966 20.1395 25.7283 20.1425 24.2999C20.1705 10.8226 20.659 11.2273 29.1849 11.1298C30.6132 11.1134 31.7788 12.2786 31.7788 13.7069V16.0218C31.7788 17.6411 33.2892 18.9073 34.7365 18.181C37.6258 16.7309 38.5772 14.2422 38.9922 11.8583C39.2169 10.5683 40.2774 9.56896 41.5869 9.56896C42.2617 9.56896 42.9089 9.30088 43.386 8.82378L47.7948 4.41493C49.424 2.78571 48.2702 0 45.9661 0Z" fill="url(#paint1_linear_380_3936)"/>
<path d="M2.59139 59.2241H35.9167C37.345 59.2241 38.5029 58.066 38.5029 56.6379V34.9138C38.5029 33.4855 37.345 32.3276 35.9167 32.3276H31.0029C29.5746 32.3276 28.418 33.4959 28.415 34.9242C28.387 48.4016 27.8985 47.9968 19.3726 48.0944C17.9443 48.1107 16.7788 46.9455 16.7788 45.5172V43.2024C16.7788 41.583 15.2683 40.3168 13.8211 41.0431C10.9317 42.4932 9.98033 44.9819 9.56529 47.3658C9.34066 48.6558 8.2801 49.6552 6.9706 49.6552C6.29581 49.6552 5.64864 49.9232 5.17149 50.4004L0.762666 54.809C-0.866551 56.4383 0.287327 59.2241 2.59139 59.2241Z" fill="url(#paint2_linear_380_3936)"/>
<defs>
<linearGradient id="paint0_linear_380_3936" x1="24.2788" y1="-1.2564e-05" x2="24.2788" y2="59.2241" gradientUnits="userSpaceOnUse">
<stop stop-color="#1BA319"/>
<stop offset="1" stop-color="#0DB817"/>
</linearGradient>
<linearGradient id="paint1_linear_380_3936" x1="24.2788" y1="0" x2="24.2788" y2="59.2241" gradientUnits="userSpaceOnUse">
<stop stop-color="#1BA319"/>
<stop offset="1" stop-color="#0DB817"/>
</linearGradient>
<linearGradient id="paint2_linear_380_3936" x1="24.2788" y1="-9.84578e-06" x2="24.2788" y2="59.2241" gradientUnits="userSpaceOnUse">
<stop stop-color="#1BA319"/>
<stop offset="1" stop-color="#0DB817"/>
</linearGradient>
</defs>
</svg>
