<svg width="20" height="18" viewBox="0 0 20 18" fill="none" xmlns="http://www.w3.org/2000/svg">
<path fill-rule="evenodd" clip-rule="evenodd" d="M9.16664 1.65838C9.2242 1.47584 9.33846 1.31641 9.49281 1.20324C9.64717 1.09007 9.83358 1.02905 10.025 1.02905C10.2164 1.02905 10.4028 1.09007 10.5571 1.20324C10.7115 1.31641 10.8257 1.47584 10.8833 1.65838L12.4333 6.42505H17.4333C17.6315 6.41755 17.8268 6.47516 17.9892 6.58908C18.1516 6.70299 18.2723 6.86695 18.3327 7.05589C18.3932 7.24484 18.3902 7.44838 18.324 7.63542C18.2579 7.82247 18.1324 7.98273 17.9666 8.09171L13.9083 11.0334L15.4583 15.8084C15.5196 15.9903 15.5212 16.187 15.4627 16.3698C15.4043 16.5526 15.2889 16.712 15.1335 16.8246C14.9781 16.9372 14.7907 16.9972 14.5988 16.9958C14.4068 16.9944 14.2204 16.9316 14.0666 16.8167L9.99998 13.8417L5.94164 16.7917C5.7879 16.9066 5.60145 16.9694 5.40951 16.9708C5.21758 16.9722 5.03022 16.9122 4.87479 16.7996C4.71936 16.687 4.604 16.5276 4.54557 16.3448C4.48713 16.162 4.48868 15.9653 4.54998 15.7834L6.09998 11.0084L2.04164 8.06671C1.87588 7.95773 1.75035 7.79747 1.68424 7.61042C1.61813 7.42338 1.61508 7.21984 1.67554 7.03089C1.736 6.84195 1.85666 6.67799 2.01907 6.56408C2.18149 6.45016 2.37673 6.39255 2.57498 6.40005H7.57498L9.16664 1.65838Z" stroke="#90A3BF" stroke-width="1.5" stroke-linecap="round" stroke-linejoin="round"/>
</svg>
