<svg width="120" height="120" viewBox="0 0 120 120" fill="none" xmlns="http://www.w3.org/2000/svg">
<path d="M57.3 68.6498C65.0596 68.6498 71.35 62.3594 71.35 54.5998C71.35 46.8402 65.0596 40.5498 57.3 40.5498C49.5404 40.5498 43.25 46.8402 43.25 54.5998C43.25 62.3594 49.5404 68.6498 57.3 68.6498Z" stroke="#596780" stroke-width="5" stroke-linecap="round" stroke-linejoin="round"/>
<path d="M83.2501 101C83.2501 89.3498 71.6501 79.8496 57.3001 79.8496C42.9501 79.8496 31.3501 89.2998 31.3501 101" stroke="#596780" stroke-width="5" stroke-linecap="round" stroke-linejoin="round"/>
<path d="M105 62.5C105 88.75 83.75 110 57.5 110C31.25 110 10 88.75 10 62.5C10 36.25 31.25 15 57.5 15C64.05 15 70.3 16.3 76 18.7C75.35 20.7 75 22.8 75 25C75 28.75 76.05 32.3 77.9 35.3C78.9 37 80.2 38.5499 81.7 39.8499C85.2 43.0499 89.85 45 95 45C97.2 45 99.3 44.6499 101.25 43.9499C103.65 49.6499 105 55.95 105 62.5Z" stroke="#596780" stroke-width="5" stroke-linecap="round" stroke-linejoin="round"/>
<path d="M115 25C115 26.6 114.8 28.15 114.4 29.65C113.95 31.65 113.15 33.6 112.1 35.3C109.7 39.35 105.85 42.4999 101.25 43.9499C99.3 44.6499 97.2 45 95 45C89.85 45 85.2 43.0499 81.7 39.8499C80.2 38.5499 78.9 37 77.9 35.3C76.05 32.3 75 28.75 75 25C75 22.8 75.35 20.7 76 18.7C76.95 15.8 78.55 13.2001 80.65 11.0501C84.3 7.30011 89.4 5 95 5C100.9 5 106.25 7.55009 109.85 11.6501C113.05 15.2001 115 19.9 115 25Z" stroke="#596780" stroke-width="5" stroke-miterlimit="10" stroke-linecap="round" stroke-linejoin="round"/>
<path d="M102.45 24.8999H87.5498" stroke="#596780" stroke-width="5" stroke-miterlimit="10" stroke-linecap="round" stroke-linejoin="round"/>
<path d="M95 17.6001V32.55" stroke="#596780" stroke-width="5" stroke-miterlimit="10" stroke-linecap="round" stroke-linejoin="round"/>
</svg>
