<svg width="99" height="60" viewBox="0 0 99 60" fill="none" xmlns="http://www.w3.org/2000/svg">
<path d="M55.8103 13.9915C57.8276 13.9915 59.3534 14.7932 60.3879 16.3966C61.4224 18.0001 61.9396 20.0173 61.9396 22.4484C61.9396 24.8794 61.336 27.0949 60.1293 29.0949C58.9396 31.0776 57.5602 32.069 55.9914 32.069C54.8881 32.069 54.0776 31.4484 53.5603 30.207C53.0431 28.9656 52.7069 27.1983 52.5517 24.9053C51.8276 25.9225 51 27.0777 50.069 28.3708C48.2758 30.8535 47.0172 32.0949 46.2931 32.0949C46.0172 32.0949 45.6983 31.8708 45.3362 31.4225C44.9741 30.9742 44.7931 30.4139 44.7931 29.7415C44.7931 29.0518 45.0258 26.9225 45.4914 23.3535C45.9569 19.7673 46.1896 16.9742 46.1896 14.9742C46.1896 14.3363 46.3793 14.0173 46.7586 14.0173C47.1379 14.0173 47.5776 14.2414 48.0776 14.6897C48.5948 15.138 48.8534 15.5518 48.8534 15.9311C48.8534 16.2932 48.5603 18.1122 47.9741 21.388C47.4052 24.6639 47.0517 27.2328 46.9138 29.0949C47.9655 27.3191 49.1466 25.6811 50.4569 24.1811C51.7846 22.6639 52.7327 21.9052 53.3017 21.9052C53.8877 21.9052 54.2933 23.1984 54.5172 25.7846C54.6036 26.7501 54.7671 27.638 55.0086 28.4484C55.2672 29.2587 55.6122 29.6639 56.0431 29.6639C57.0088 29.6639 57.8446 28.888 58.5517 27.3363C59.2758 25.7673 59.6379 24.0346 59.6379 22.138C59.6379 20.0345 59.1724 18.4139 58.2414 17.2759C57.7588 16.6725 57.224 16.3708 56.6379 16.3708C56.069 16.3708 55.5776 16.1725 55.1638 15.7759C54.7671 15.3794 54.569 15.0346 54.569 14.7415C54.569 14.2414 54.9827 13.9915 55.8103 13.9915ZM74.2815 23.6639C74.2815 24.5777 73.7819 25.3277 72.7815 25.9139C71.7988 26.4828 70.6784 26.7673 69.4195 26.7673C68.1781 26.7673 67.049 26.6294 66.0315 26.3535C65.7905 27.1122 65.6695 27.7932 65.6695 28.3966C65.6695 28.9828 65.8505 29.4397 66.2126 29.7673C66.5922 30.0949 67.2041 30.2587 68.0488 30.2587C68.911 30.2587 69.7903 30.1122 70.6867 29.819C71.6007 29.5087 72.1009 29.3535 72.1867 29.3535C72.6352 29.3535 72.8591 29.5259 72.8591 29.8708C72.8591 30.3363 72.3336 30.8449 71.2815 31.3966C70.23 31.9311 69.2043 32.1984 68.2039 32.1984C66.8591 32.1984 65.7646 31.8018 64.9195 31.0087C64.0748 30.1983 63.6522 29.1811 63.6522 27.957C63.6522 26.7328 63.9802 25.457 64.635 24.1294C65.2903 22.7846 66.135 21.6553 67.1695 20.7415C68.2039 19.8276 69.2302 19.3708 70.2471 19.3708C71.2645 19.3708 72.1867 19.8535 73.0143 20.819C73.8595 21.7846 74.2815 22.7328 74.2815 23.6639ZM70.3764 21.4139C69.7386 21.4139 69.075 21.7501 68.385 22.4225C67.6955 23.0777 67.1095 23.8966 66.6264 24.8794C67.3164 25.0346 68.1005 25.1121 68.9798 25.1121C69.8591 25.1121 70.6267 24.9742 71.2815 24.6984C71.9369 24.4052 72.2643 24.0259 72.2643 23.5604C72.2643 23.0949 72.0491 22.6207 71.6177 22.138C71.204 21.6553 70.7902 21.4139 70.3764 21.4139Z" fill="#4D4D4D"/>
<path d="M55.0345 47.7415C55.0345 49.1553 54.3967 50.3449 53.1207 51.3105C51.8447 52.2586 50.3793 52.7329 48.7242 52.7329C47.0862 52.7329 45.7328 52.3103 44.6638 51.4656C43.5948 50.6035 43.0604 49.7932 43.0604 49.0346C43.0604 48.5174 43.2155 48.2587 43.5259 48.2587C43.8017 48.2587 44.3448 48.6725 45.1552 49.5001C45.4655 49.7932 45.8793 50.0691 46.3966 50.3277C46.931 50.5863 47.4914 50.7156 48.0776 50.7156C49.2845 50.7156 50.3535 50.4053 51.2845 49.7846C52.2326 49.1639 52.7069 48.4915 52.7069 47.7674C52.7069 47.3018 52.3966 46.707 51.7759 45.9829C51.1552 45.2587 50.4656 44.5777 49.7069 43.9398C48.9656 43.2846 48.2845 42.5863 47.6638 41.8449C47.0431 41.1036 46.7328 40.5173 46.7328 40.0863C46.7328 39.6553 46.819 39.1984 46.9914 38.7156C47.1638 38.2329 47.3535 37.8794 47.5604 37.6553C48.2328 36.9139 49.2759 36.2329 50.6897 35.6122C52.1209 34.9915 53.3188 34.6812 54.2845 34.6812C54.7847 34.6812 55.2067 34.845 55.5517 35.1725C55.8967 35.5001 56.069 35.8449 56.069 36.207C56.069 36.3794 55.8879 36.5174 55.5259 36.6208C55.1638 36.7243 54.6119 36.8622 53.8707 37.0346C53.1466 37.1898 52.5 37.3794 51.9311 37.6036C49.9483 38.3622 48.9569 39.0949 48.9569 39.8018C48.9569 40.1811 49.9655 41.2415 51.9828 42.9829C52.7586 43.6553 53.4569 44.4398 54.0776 45.3363C54.7154 46.2156 55.0345 47.0174 55.0345 47.7415ZM67.8688 42.8018L67.6878 47.6639C67.6878 49.0087 67.7478 49.9829 67.8688 50.5863C68.61 49.8105 69.2478 48.9053 69.7826 47.8708C70.334 46.8191 70.7395 45.8449 70.9981 44.9484C71.2738 44.0519 71.5066 43.2156 71.6964 42.4398C71.9033 41.6467 72.0926 41.0174 72.2654 40.5518C72.4376 40.0863 72.6357 39.8536 72.8602 39.8536C73.1876 39.8536 73.4809 39.9915 73.7395 40.2674C73.9981 40.526 74.1274 40.8277 74.1274 41.1725C74.1274 42.0518 73.7307 43.5001 72.9378 45.5174C72.2654 47.3794 71.3861 49.0863 70.2998 50.638C69.2136 52.1727 68.3685 52.9398 67.7654 52.9398C67.1617 52.9398 66.705 52.6036 66.3947 51.9312C66.1014 51.2587 65.9374 49.9743 65.9033 48.0777C65.8686 46.1639 65.8945 44.5087 65.9809 43.1122C64.7912 46.3536 63.7392 48.8018 62.8257 50.457C61.9117 52.1122 61.1876 52.9398 60.6533 52.9398C60.4117 52.9398 60.1531 52.8275 59.8774 52.6036C59.6188 52.3796 59.4119 52.0863 59.2567 51.7243C58.8771 50.8104 58.5497 49.0691 58.274 46.5001C58.0154 43.9139 57.8861 42.0691 57.8861 40.9656C57.8861 40.2587 58.1012 39.9053 58.5326 39.9053C58.9117 39.9053 59.2567 40.1208 59.5671 40.5518C59.8945 40.9829 60.0843 41.4139 60.1361 41.8449C60.1878 42.2587 60.2307 43.4312 60.2654 45.3622C60.3171 47.276 60.4805 48.9829 60.7567 50.4829C61.4633 49.2587 62.1704 47.7243 62.8774 45.8794C63.6016 44.0346 64.1876 42.5863 64.6361 41.5346C65.1016 40.4829 65.5236 39.957 65.9033 39.957C66.4723 39.957 66.9378 40.2243 67.2999 40.7587C67.679 41.276 67.8688 41.957 67.8688 42.8018ZM82.6836 44.457C82.6836 43.8708 82.589 43.3191 82.3992 42.8018C82.2093 42.2674 81.9336 41.8794 81.5716 41.638C80.3819 41.9656 79.3562 42.8881 78.494 44.4053C77.6493 45.9053 77.2267 47.3191 77.2267 48.6467C77.2267 49.9743 77.5542 50.8019 78.2095 51.1294C79.4509 50.888 80.5024 50.0432 81.3647 48.5949C82.244 47.1294 82.6836 45.7501 82.6836 44.457ZM75.8819 44.6898C76.4855 43.3449 77.2697 42.2415 78.2354 41.3794C79.2181 40.5001 80.2179 40.0605 81.2354 40.0605C82.2698 40.0605 83.1321 40.5001 83.8216 41.3794C84.5111 42.2415 84.8561 43.3019 84.8561 44.5605C84.8561 45.8018 84.5545 47.0777 83.9509 48.3881C83.3473 49.6812 82.5114 50.7587 81.4423 51.6208C80.3907 52.4655 79.2699 52.888 78.0802 52.888C77.2009 52.888 76.468 52.483 75.8819 51.6725C75.2959 50.8622 75.0026 49.8363 75.0026 48.5949C75.0026 47.3363 75.2959 46.0346 75.8819 44.6898ZM95.0488 39.9829C95.7905 39.9829 96.4283 40.457 96.9626 41.4053C97.5145 42.3535 97.7902 43.3363 97.7902 44.3536C97.7902 45.3535 97.4974 46.3622 96.9109 47.3794C96.3248 48.3794 95.6007 49.276 94.7385 50.0691C93.8767 50.8622 92.9198 51.526 91.8678 52.0605C90.8333 52.5777 89.8764 52.8363 88.9971 52.8363C88.6526 52.8363 88.3247 52.7934 88.0143 52.707C87.9455 53.0003 87.825 53.5258 87.6523 54.2846C87.48 55.0434 87.3336 55.6724 87.2126 56.1725C87.0921 56.6727 86.954 57.207 86.7988 57.776C86.4885 58.9486 86.2128 59.5346 85.9712 59.5346C85.7302 59.5346 85.4799 59.3448 85.2212 58.9656C84.9455 58.6036 84.8074 58.2762 84.8074 57.9829C84.8074 57.6896 85.0836 56.4312 85.635 54.207C87.2902 47.5001 88.1178 42.9829 88.1178 40.6553C88.1178 40.138 88.3076 39.8794 88.6867 39.8794C88.9971 39.8794 89.368 40.1122 89.7988 40.5777C90.2473 41.026 90.4712 41.526 90.4712 42.0777C90.4712 42.3535 90.4371 42.6553 90.3678 42.9829C91.9024 40.9829 93.463 39.9829 95.0488 39.9829ZM88.7385 50.8191C89.6524 50.8191 90.6352 50.5087 91.6867 49.888C92.7559 49.2674 93.6611 48.4484 94.4023 47.4312C95.1611 46.3967 95.5402 45.3708 95.5402 44.3536C95.5402 42.9225 95.204 42.207 94.5316 42.207C93.8592 42.207 92.9457 42.7846 91.7902 43.9398C90.6523 45.0949 89.7471 46.5949 89.0747 48.4398L88.4799 50.8191H88.7385Z" fill="#4D4D4D"/>
<path d="M26.58 31.5962C26.4648 29.8504 25.8471 28.4242 22.5353 27.5168C22.0463 27.3827 21.0918 28.3331 21.4504 28.6917L25.0862 32.3275C25.4121 32.6534 26.6103 32.056 26.58 31.5962Z" fill="url(#paint0_linear_196_1667)"/>
<path d="M45.9661 0H12.6408C11.2125 0 10.0546 1.15789 10.0546 2.58621V24.3103C10.0546 25.7387 11.2125 26.8966 12.6408 26.8966H17.5546C18.9829 26.8966 20.1395 25.7283 20.1425 24.2999C20.1705 10.8226 20.659 11.2273 29.1849 11.1298C30.6132 11.1134 31.7788 12.2786 31.7788 13.7069V16.0218C31.7788 17.6411 33.2892 18.9073 34.7365 18.181C37.6258 16.7309 38.5772 14.2422 38.9922 11.8583C39.2169 10.5683 40.2774 9.56896 41.5869 9.56896C42.2617 9.56896 42.9089 9.30088 43.386 8.82378L47.7948 4.41493C49.424 2.78571 48.2702 0 45.9661 0Z" fill="url(#paint1_linear_196_1667)"/>
<path d="M2.59139 59.2242H35.9167C37.345 59.2242 38.5029 58.0661 38.5029 56.638V34.9138C38.5029 33.4855 37.345 32.3276 35.9167 32.3276H31.0029C29.5746 32.3276 28.418 33.4959 28.415 34.9242C28.387 48.4016 27.8985 47.9968 19.3726 48.0944C17.9443 48.1108 16.7788 46.9456 16.7788 45.5173V43.2024C16.7788 41.5831 15.2683 40.3169 13.8211 41.0432C10.9317 42.4933 9.98033 44.9819 9.56529 47.3659C9.34066 48.6559 8.2801 49.6552 6.9706 49.6552C6.29581 49.6552 5.64864 49.9233 5.17149 50.4005L0.762666 54.809C-0.866551 56.4383 0.287327 59.2242 2.59139 59.2242Z" fill="url(#paint2_linear_196_1667)"/>
<defs>
<linearGradient id="paint0_linear_196_1667" x1="24.2788" y1="-7.35992e-05" x2="24.2788" y2="59.2241" gradientUnits="userSpaceOnUse">
<stop stop-color="#1BA319"/>
<stop offset="1" stop-color="#0DB817"/>
</linearGradient>
<linearGradient id="paint1_linear_196_1667" x1="24.2788" y1="0" x2="24.2788" y2="59.2241" gradientUnits="userSpaceOnUse">
<stop stop-color="#1BA319"/>
<stop offset="1" stop-color="#0DB817"/>
</linearGradient>
<linearGradient id="paint2_linear_196_1667" x1="24.2788" y1="5.11894e-05" x2="24.2788" y2="59.2242" gradientUnits="userSpaceOnUse">
<stop stop-color="#1BA319"/>
<stop offset="1" stop-color="#0DB817"/>
</linearGradient>
</defs>
</svg>
